0
SECTION
2
HEADER
9
$INSUNITS
70
4
9
$ACADVER
1
AC1014
9
$HANDSEED
5
FFFF
0
ENDSEC
0
SECTION
2
TABLES
0
TABLE
2
VPORT
5
8
100
AcDbSymbolTable
0
ENDTAB
0
TABLE
2
LTYPE
5
5
100
AcDbSymbolTable
0
LTYPE
5
14
100
AcDbSymbolTableRecord
100
AcDbLinetypeTableRecord
2
BYBLOCK
70
0
0
LTYPE
5
15
100
AcDbSymbolTableRecord
100
AcDbLinetypeTableRecord
2
BYLAYER
70
0
0
ENDTAB
0
TABLE
2
LAYER
5
2
100
AcDbSymbolTable
70
2
0
LAYER
5
50
100
AcDbSymbolTableRecord
100
AcDbLayerTableRecord
2
0
70
0
6
CONTINUOUS
0
ENDTAB
0
TABLE
2
STYLE
5
3
100
AcDbSymbolTable
70
1
0
STYLE
5
11
100
AcDbSymbolTableRecord
100
AcDbTextStyleTableRecord
2
STANDARD
70
0
0
ENDTAB
0
TABLE
2
VIEW
5
6
100
AcDbSymbolTable
70
0
0
ENDTAB
0
TABLE
2
UCS
5
7
100
AcDbSymbolTable
70
0
0
ENDTAB
0
TABLE
2
APPID
5
9
100
AcDbSymbolTable
70
2
0
APPID
5
12
100
AcDbSymbolTableRecord
100
AcDbRegAppTableRecord
2
ACAD
70
0
0
ENDTAB
0
TABLE
2
DIMSTYLE
5
A
100
AcDbSymbolTable
70
1
0
ENDTAB
0
TABLE
2
BLOCK_RECORD
5
1
100
AcDbSymbolTable
70
1
0
BLOCK_RECORD
5
1F
100
AcDbSymbolTableRecord
100
AcDbBlockTableRecord
2
*MODEL_SPACE
0
BLOCK_RECORD
5
1B
100
AcDbSymbolTableRecord
100
AcDbBlockTableRecord
2
*PAPER_SPACE
0
ENDTAB
0
ENDSEC
0
SECTION
2
BLOCKS
0
BLOCK
5
20
100
AcDbEntity
100
AcDbBlockBegin
2
*MODEL_SPACE
0
ENDBLK
5
21
100
AcDbEntity
100
AcDbBlockEnd
0
BLOCK
5
1C
100
AcDbEntity
100
AcDbBlockBegin
2
*PAPER_SPACE
0
ENDBLK
5
1D
100
AcDbEntity
100
AcDbBlockEnd
0
ENDSEC
0
SECTION
2
ENTITIES
0
LWPOLYLINE
5
100
100
AcDbEntity
8
0
100
AcDbPolyline
90
10
70
1
43
0.0
10
-40.000000000000043
20
-2.3999999999999764
10
-49.968470121112169
20
-2.3999999999999959
10
-53.396025337292976
20
3.9968028886505635e-14
10
-49.968470121112091
20
2.4000000000000585
10
-40.000000000000014
20
2.4000000000001638
10
-40.000000000000078
20
2.4999999999999472
10
-50.000000000000064
20
2.5000000000000231
10
-53.570370016855115
20
-1.1102230246251565e-15
10
-50.000000000000064
20
-2.5000000000000111
10
-40.000000000000078
20
-2.4999999999999516
0
LWPOLYLINE
5
101
100
AcDbEntity
8
0
100
AcDbPolyline
90
10
70
1
43
0.0
10
49.968470121112169
20
-2.4000000000000008
10
40.000000000000078
20
-2.3999999999999901
10
40.000000000000064
20
-2.4999999999999525
10
50.000000000000078
20
-2.4999999999999942
10
53.570370016855129
20
-5.5511151231257827e-15
10
50.000000000000078
20
2.5000000000000222
10
40.000000000000064
20
2.4999999999999476
10
40.000000000000078
20
2.4000000000001749
10
49.968470121112077
20
2.4000000000000052
10
53.39602533729299
20
1.1934897514720433e-14
0
LWPOLYLINE
5
102
100
AcDbEntity
8
0
100
AcDbPolyline
90
10
70
1
43
0.0
10
129.96847012111209
20
-2.3999999999997481
10
120.00000000000003
20
-2.3999999999997885
10
120.00000000000003
20
-2.4999999999998512
10
129.99999999999977
20
-2.4999999999999147
10
133.57037001685526
20
-5.79813974610488e-13
10
130.00000000000006
20
2.4999999999992988
10
120.00000000000007
20
2.4999999999999796
10
120.00000000000003
20
2.4000000000000474
10
129.96847012111328
20
2.3999999999999431
10
133.39602533729311
20
5.4123372450476381e-14
0
LWPOLYLINE
5
103
100
AcDbEntity
8
0
100
AcDbPolyline
90
10
70
1
43
0.0
10
-120.00000000000003
20
-2.3999999999998369
10
-129.96847012111209
20
-2.4000000000001824
10
-133.3960253372932
20
7.9936057773011271e-14
10
-129.96847012111331
20
2.399999999999975
10
-120.00000000000009
20
2.4000000000000474
10
-120.00000000000006
20
2.4999999999999787
10
-130.00000000000006
20
2.499999999999964
10
-133.57037001685526
20
1.0075273948473296e-13
10
-129.99999999999983
20
-2.4999999999999085
10
-120.00000000000003
20
-2.4999999999998441
0
LWPOLYLINE
5
104
100
AcDbEntity
8
0
100
AcDbPolyline
90
4
70
1
43
0.0
10
-189.7000000000088
20
6.5000000001894218
10
-190.30000000000879
20
6.5000000001894218
10
-190.29999999997375
20
-6.4999999998105649
10
-189.7000000000088
20
-6.4999999998089599
0
LWPOLYLINE
5
105
100
AcDbEntity
8
0
100
AcDbPolyline
90
4
70
1
43
0.0
10
-179.70000000000002
20
6.5000000000000018
10
-180.29999999999998
20
6.5000000000000018
10
-180.29999999999998
20
-6.5000000000000036
10
-179.70000000000002
20
-6.5000000000000036
0
LWPOLYLINE
5
106
100
AcDbEntity
8
0
100
AcDbPolyline
90
4
70
1
43
0.0
10
189.70000000000883
20
6.5000000001894334
10
189.70000000000883
20
-6.4999999998089528
10
190.29999999997375
20
-6.4999999998105693
10
190.30000000000871
20
6.5000000001894334
0
LWPOLYLINE
5
107
100
AcDbEntity
8
0
100
AcDbPolyline
90
4
70
1
43
0.0
10
179.70000000000002
20
6.5000000000000018
10
179.70000000000002
20
-6.5000000000000018
10
180.29999999999998
20
-6.5000000000000018
10
180.29999999999998
20
6.5000000000000018
0
LWPOLYLINE
5
108
100
AcDbEntity
8
0
100
AcDbPolyline
90
62
70
1
43
0.0
10
-353.60000000000002
20
-15.000000000000004
10
-368
20
-15.000000000000004
10
-383.00000000000006
20
-1.1102230246251565e-15
10
-383.60000000000002
20
0
10
-368.60000000000002
20
-15.000000000000004
10
-385.00000000000006
20
-15
10
-400
20
0
10
-400
20
15
10
278
20
15.000000000000018
10
293.00000000000006
20
-3.5527136788005009e-14
10
293.8485281374239
20
-1.7763568394002505e-14
10
278.8485281374239
20
15
10
293
20
15.000000000000018
10
308
20
-3.5527136788005009e-14
10
308.8485281374239
20
-1.7763568394002505e-14
10
293.8485281374239
20
15
10
308
20
15.000000000000018
10
323
20
-3.5527136788005009e-14
10
323.84852813742384
20
-1.7763568394002505e-14
10
308.8485281374239
20
15
10
323
20
15.000000000000018
10
338
20
-3.5527136788005009e-14
10
338.84852813742384
20
-1.7763568394002505e-14
10
323.84852813742384
20
15
10
338
20
15.000000000000018
10
353
20
-3.5527136788005009e-14
10
353.84852813742384
20
-1.7763568394002505e-14
10
338.84852813742384
20
15
10
353
20
15.000000000000018
10
368
20
-3.5527136788005009e-14
10
368.84852813742384
20
-1.7763568394002505e-14
10
353.84852813742384
20
15
10
368
20
15.000000000000018
10
383
20
-3.5527136788005009e-14
10
383.84852813742384
20
-1.7763568394002505e-14
10
368.84852813742384
20
15
10
385.00000000000006
20
15
10
400
20
0
10
400
20
-15
10
-278
20
-15
10
-293.00000000000006
20
-1.1102230246251565e-15
10
-293.60000000000002
20
-2.2204460492503131e-15
10
-278.60000000000002
20
-15.000000000000002
10
-293
20
-15.000000000000004
10
-308.00000000000006
20
-1.1102230246251565e-15
10
-308.60000000000002
20
0
10
-293.60000000000002
20
-15.000000000000004
10
-308
20
-15.000000000000004
10
-323.00000000000006
20
-1.1102230246251565e-15
10
-323.60000000000002
20
0
10
-308.59999999999997
20
-15.000000000000004
10
-323
20
-15.000000000000004
10
-338.00000000000006
20
-1.1102230246251565e-15
10
-338.60000000000002
20
0
10
-323.60000000000002
20
-15.000000000000004
10
-338
20
-15.000000000000004
10
-353.00000000000006
20
-1.1102230246251565e-15
10
-353.60000000000002
20
0
10
-338.60000000000002
20
-15.000000000000004
10
-353
20
-15.000000000000004
10
-368.00000000000006
20
-1.1102230246251565e-15
10
-368.60000000000002
20
0
0
ENDSEC
0
SECTION
2
OBJECTS
0
DICTIONARY
5
C
100
AcDbDictionary
3
ACAD_GROUP
350
D
3
ACAD_MLINESTYLE
350
17
0
DICTIONARY
5
D
100
AcDbDictionary
0
DICTIONARY
5
1A
330
C
100
AcDbDictionary
0
DICTIONARY
5
17
100
AcDbDictionary
0
ENDSEC
0
EOF
